Coordinates
version=1
nRows=12
nColumns=24
inDegrees=yes

Units are S.I. units (second, meters, Newtons, ...)
Angles are in degrees.

endheader
time	pelvis_tilt	pelvis_list	pelvis_rotation	pelvis_tx	pelvis_ty	pelvis_tz	hip_flexion_r	hip_adduction_r	hip_rotation_r	knee_angle_r	ankle_angle_r	subtalar_angle_r	mtp_angle_r	hip_flexion_l	hip_adduction_l	hip_rotation_l	knee_angle_l	ankle_angle_l	subtalar_angle_l	mtp_angle_l	lumbar_extension	lumbar_bending	lumbar_rotation
      0.68300000	      2.20968652	      3.44184279	     10.78282393	      0.06777642	      0.99051893	      0.22503779	     28.22853235	     -5.68250349	     -4.02814884	     -5.41887541	     10.11592750	     -6.53404334	      6.69251165	    -17.88450568	      4.29019140	     13.75216577	    -18.17926661	     18.03356405	     -5.79448201	     -2.13416779	     -5.42612787	     -5.55051767	     -8.66678877
      0.68716667	      2.22951125	      3.31425145	     10.98308912	      0.07401742	      0.98991234	      0.22536013	     28.23303016	     -5.56973883	     -3.89608584	     -6.09026643	     10.07675769	     -6.93681823	      6.71335825	    -18.04611798	      4.00203642	     13.72322643	    -18.54940858	     17.88943743	     -5.59136961	     -2.11092128	     -5.35012617	     -5.40565822	     -8.82539403
      0.69133333	      2.26332443	      3.19000825	     11.19956060	      0.08028568	      0.98935308	      0.22566931	     28.21329472	     -5.46383906	     -3.85339631	     -6.75753835	     10.02101108	     -7.28000550	      6.73081618	    -18.21409196	      3.71234164	     13.72562292	    -18.93675046	     17.67041170	     -5.50105028	     -2.08826746	     -5.28775268	     -5.28483391	     -8.89598973
      0.69550000	      2.28367015	      3.03683155	     11.37764031	      0.08666249	      0.98877677	      0.22608576	     28.18183026	     -5.29223296	     -3.68481481	     -7.35063513	      9.71455576	     -7.88044475	      6.78580331	    -18.37512640	      3.39294799	     13.66422944	    -19.29493761	     17.48429828	     -5.28557681	     -1.99393720	     -5.19392841	     -5.11093975	     -9.10884339
      0.69966667	      2.32408830	      2.89932755	     11.57033551	      0.09302652	      0.98824480	      0.22651063	     28.12211910	     -5.13507473	     -3.57444299	     -7.93748858	      9.41312589	     -8.44452522	      6.89344008	    -18.53200741	      3.07826552	     13.58343964	    -19.70440403	     17.29052126	     -5.09388026	     -1.81407572	     -5.13826391	     -4.97996806	     -9.24101596
      0.70383333	      2.34753702	      2.74898230	     11.76288053	      0.09948393	      0.98772484	      0.22691659	     28.08864386	     -4.97547258	     -3.60567645	     -8.54830735	      9.17335995	     -8.73577123	      6.93633048	    -18.68151878	      2.75571851	     13.53690320	    -20.08092448	     16.94573074	     -4.99728475	     -1.74504869	     -5.01143449	     -4.82879484	     -9.29557853
      0.70800000	      2.38364166	      2.57191853	     11.92976883	      0.10598200	      0.98721062	      0.22743265	     28.00887520	     -4.74479007	     -3.45858578	     -9.05425404	      8.62510755	     -9.49004467	      7.09922418	    -18.82619924	      2.39688615	     13.40215535	    -20.48383533	     16.73400602	     -4.76101364	     -1.46780057	     -4.93981768	     -4.65010699	     -9.48283920
      0.71216667	      2.41659706	      2.38645398	     12.09940460	      0.11253462	      0.98672257	      0.22796053	     27.93654607	     -4.51000759	     -3.42185683	     -9.56595288	      8.09668982	    -10.06568042	      7.32440298	    -18.95736850	      2.02505432	     13.25553591	    -20.89185945	     16.41494819	     -4.55649929	     -1.09254701	     -4.82971118	     -4.46854501	     -9.57836037
      0.71633333	      2.44836148	      2.19870414	     12.26154887	      0.11912294	      0.98625246	      0.22850276	     27.86497934	     -4.26605042	     -3.40732678	    -10.06349098	      7.50392323	    -10.63176218	      7.59623546	    -19.07929482	      1.65194053	     13.09524257	    -21.30814636	     16.05248270	     -4.36835966	     -0.64077087	     -4.70549993	     -4.28082276	     -9.67610675
      0.72050000	      2.48771704	      1.99281897	     12.39025675	      0.12579621	      0.98578478	      0.22911497	     27.80830548	     -3.99080568	     -3.46620571	    -10.58773819	      6.89567281	    -11.04684258	      9.85989049	    -19.20392102	      1.25046577	     12.81845594	    -21.70969906	     15.59494186	     -4.08072484	      3.06539491	     -4.55952172	     -4.09847077	     -9.63788149
      0.72466667	      2.50464089	      1.79835902	     12.54528978	      0.13242991	      0.98534718	      0.22968149	     27.75410196	     -3.73328162	     -3.48321559	    -11.06362954	      6.16317016	    -11.59263506	      9.89120399	    -19.29622732	      0.88560321	     12.71425495	    -22.14060339	     15.11431256	     -4.06284820	      3.15604596	     -4.43006638	     -3.89551681	     -9.80792555
      0.72883333	      2.53673086	      1.57671767	     12.66996691	      0.13912902	      0.98492301	      0.23033455	     27.69373283	     -3.42365844	     -3.49337233	    -11.53698845	      5.40012979	    -12.14975868	      9.96761204	    -19.38235480	      0.47892963	     12.46822193	    -22.59413209	     14.65785769	     -3.86421584	      3.33022413	     -4.29337812	     -3.68265771	     -9.86177340
